<?xml version="1.0" standalone="no"?>
<!DOCTYPE svg PUBLIC "-//W3C//DTD SVG 20010904//EN"
 "http://www.w3.org/TR/2001/REC-SVG-20010904/DTD/svg10.dtd">
<svg version="1.0" xmlns="http://www.w3.org/2000/svg"
 width="256.000000pt" height="256.000000pt" viewBox="0 0 256.000000 256.000000"
 preserveAspectRatio="xMidYMid meet">

<g transform="translate(0.000000,256.000000) scale(0.100000,-0.100000)"
fill="#000000" stroke="none">
<path d="M398 2132 c-15 -22 -44 -53 -65 -68 -21 -15 -42 -31 -46 -34 -4 -4
12 -19 35 -34 24 -15 57 -47 75 -72 l31 -46 27 42 c14 22 46 55 71 73 l46 32
-28 20 c-36 26 -74 63 -99 99 l-21 29 -26 -41z"/>
<path d="M1130 2019 c-111 -12 -229 -42 -307 -78 -78 -37 -157 -114 -172 -167
-7 -26 -11 -216 -11 -554 0 -586 -3 -560 85 -638 62 -55 149 -96 261 -124 78
-20 114 -23 294 -23 180 0 216 3 294 23 112 28 199 69 261 124 88 78 85 52 85
638 0 315 -4 529 -10 551 -35 126 -229 223 -499 249 -119 11 -160 11 -281 -1z
m395 -233 c72 -20 175 -66 175 -77 0 -15 -64 -57 -110 -72 -115 -39 -345 -51
-481 -27 -126 23 -249 72 -249 100 0 18 154 74 260 94 59 11 346 -2 405 -18z
m-580 -353 c163 -57 507 -57 670 0 22 8 52 17 68 21 25 6 27 4 27 -28 0 -26
-8 -41 -36 -66 -48 -42 -60 -46 -203 -64 -162 -21 -279 -20 -398 3 -172 33
-223 63 -223 127 0 32 2 34 28 28 15 -4 45 -13 67 -21z m0 -320 c172 -60 505
-57 689 7 33 11 63 20 68 20 4 0 8 -16 8 -35 0 -30 -6 -39 -42 -62 -90 -58
-214 -85 -393 -84 -250 0 -425 60 -425 147 0 32 1 34 28 28 15 -4 45 -13 67
-21z m0 -320 c172 -60 505 -57 689 7 33 11 63 20 68 20 4 0 8 -15 8 -34 0 -26
-7 -41 -30 -60 -87 -72 -368 -106 -588 -71 -166 27 -242 69 -242 132 0 31 2
33 28 27 15 -4 45 -13 67 -21z"/>
<path d="M2102 528 c-17 -24 -49 -57 -72 -72 -23 -15 -38 -31 -34 -35 5 -4 26
-20 47 -35 21 -15 49 -46 63 -68 l26 -40 30 44 c17 25 51 59 76 76 l44 30 -40
26 c-22 14 -53 42 -68 63 -15 21 -31 42 -35 46 -4 5 -20 -11 -37 -35z"/>
</g>
</svg>
